<?xml version="1.0" encoding="UTF-8"?>
<!DOCTYPE svg PUBLIC "-//W3C//DTD SVG 1.1//EN" "http://www.w3.org/Graphics/SVG/1.1/DTD/svg11.dtd">
<svg xmlns="http://www.w3.org/2000/svg" version="1.1" width="512px" height="512px" style="shape-rendering:geometricPrecision; text-rendering:geometricPrecision; image-rendering:optimizeQuality; fill-rule:evenodd; clip-rule:evenodd" xmlns:xlink="http://www.w3.org/1999/xlink">
<g><path style="opacity:1" fill="#05070d" d="M -0.5,-0.5 C 170.167,-0.5 340.833,-0.5 511.5,-0.5C 511.5,170.167 511.5,340.833 511.5,511.5C 340.833,511.5 170.167,511.5 -0.5,511.5C -0.5,340.833 -0.5,170.167 -0.5,-0.5 Z"/></g>
<g><path style="opacity:1" fill="#a1a2a4" d="M 93.5,202.5 C 153.335,201.169 213.335,201.169 273.5,202.5C 273.376,203.107 273.043,203.44 272.5,203.5C 213.002,202.501 153.336,202.168 93.5,202.5 Z"/></g>
<g><path style="opacity:1" fill="#fdfdfd" d="M 93.5,202.5 C 153.336,202.168 213.002,202.501 272.5,203.5C 267.555,212.555 262.222,221.388 256.5,230C 231.5,230.333 206.5,230.667 181.5,231C 168.781,250.275 156.448,269.775 144.5,289.5C 143.957,289.56 143.624,289.893 143.5,290.5C 160.995,291.167 178.329,291.833 195.5,292.5C 159.452,308.186 123.119,323.352 86.5,338C 76.8161,338.832 67.1495,338.665 57.5,337.5C 81.4628,301.74 105.796,266.24 130.5,231C 112.167,230.667 93.8333,230.333 75.5,230C 81.363,220.658 87.363,211.491 93.5,202.5 Z"/></g>
<g><path style="opacity:1" fill="#21c35d" d="M 311.5,244.5 C 310.957,244.56 310.624,244.893 310.5,245.5C 357.162,246.5 403.829,246.833 450.5,246.5C 436.106,270.278 421.439,293.945 406.5,317.5C 355.837,318.667 305.17,318.833 254.5,318C 248.853,312.892 244.019,307.058 240,300.5C 237.928,297.029 236.428,293.362 235.5,289.5C 281.501,289.667 327.501,289.5 373.5,289C 376.749,284.503 379.749,279.837 382.5,275C 335.833,274.667 289.167,274.333 242.5,274C 257.625,250.251 272.625,226.418 287.5,202.5C 338.163,201.333 388.83,201.167 439.5,202C 447.437,210.035 453.77,219.201 458.5,229.5C 412.504,230.333 366.504,230.833 320.5,231C 317.353,235.479 314.353,239.979 311.5,244.5 Z"/></g>
<g><path style="opacity:1" fill="#1dad53" d="M 311.5,244.5 C 358.402,245.162 404.736,245.829 450.5,246.5C 403.829,246.833 357.162,246.5 310.5,245.5C 310.624,244.893 310.957,244.56 311.5,244.5 Z"/></g>
<g><path style="opacity:1" fill="#818285" d="M 144.5,289.5 C 161.995,290.332 179.662,290.832 197.5,291C 196.956,291.717 196.289,292.217 195.5,292.5C 178.329,291.833 160.995,291.167 143.5,290.5C 143.624,289.893 143.957,289.56 144.5,289.5 Z"/></g>
</svg>
